<?xml version="1.0" encoding="UTF-8"?>
<svg width="728.99" height="210" version="1.1" viewBox="0 0 728.99 210" xmlns="http://www.w3.org/2000/svg">
    <title>BMBF-Logo</title>
    <rect width="728.99" height="210" ry="9.2061" fill="#fff" stroke-width=".91982"/>
    <g transform="translate(-13.083 -13.287)" fill="none" fill-rule="evenodd">
        <g id="BMBF-Logo">
            <g id="Gefördert_vom_BMBF" transform="translate(43,42)" fill-rule="nonzero">
                <g transform="matrix(1,0,0,-1,0,153)">
                    <g transform="translate(0 .72221)">
                        <g fill="#231f20">
                            <path d="m76.163 52.627c0-1.6544-1.0918-2.3037-1.9631-2.3037-1.1506 0-1.7059 0.80731-1.7059 2.0083v6.8959h-1.6248v-7.585c0-1.6936 0.95076-2.5605 2.6967-2.5605 1.049 0 2.0019 0.49248 2.5377 1.3981h0.05948v-1.2009h1.7245c-0.06019 0.69035-0.09948 1.3795-0.09948 2.0681v7.8803h-1.625v-6.6004"/>
                            <path d="m87.781 49.279v6.8945c0 1.9704-0.53601 3.2496-2.6767 3.2496-1.2897 0-2.0433-0.3537-2.6769-1.4771h-0.07806v1.2813h-1.7259c0.05948-0.69052 0.09754-1.3775 0.09754-2.0693v-7.8791h1.6284v5.8914c0 1.3589 0.25721 2.9336 2.0412 2.9336 1.3871 0 1.764-0.86694 1.764-1.9305v-6.8945h1.6264"/>
                            <path d="m95.77 54.658c0-2.0083 0-4.2562-1.8233-4.2562-2.0419 0-2.0419 2.169-2.0419 3.6653 0 2.659 0.23915 4.0378 1.9838 4.0378 1.8019 0 1.8813-2.1277 1.8813-3.4468zm0 3.5671h-0.05806c-0.55654 0.78532-1.2494 1.1988-2.2001 1.1988-3.2327 0-3.3115-2.8546-3.3115-5.3383 0-4.373 1.6248-5.003 3.2318-5.003 1.0504 0 1.7433 0.45343 2.2986 1.3809h0.0393v-1.1837h1.6257v14.222h-1.6257v-5.2765"/>
                            <polyline points="106.06 49.279 106.06 55.781 111.06 55.781 111.06 57.358 106.06 57.358 106.06 61.928 111.33 61.928 111.33 63.501 104.23 63.501 104.23 49.279 106.06 49.279 106.06 49.279"/>
                            <path d="m116.33 50.401c-1.6859 0-2.1028 1.1624-2.1028 4.395 0 2.7194 0.8511 3.308 2.1028 3.308 1.248 0 2.1014-0.58868 2.1014-3.308 0-3.2326-0.41635-4.395-2.1014-4.395zm0-1.3191c2.1214 0 3.8052 0.63002 3.8052 5.0236 0 2.9165-0.33615 5.3177-3.8052 5.3177-3.4699 0-3.8073-2.4012-3.8073-5.3177 0-4.3936 1.6843-5.0236 3.8073-5.0236"/>
                            <path d="m124.3 59.228h-1.625v-9.9484h1.625v5.8694c0 1.3411 0.45635 2.7014 2.2577 2.7014 0.29739 0 0.57743-0.06173 0.87464-0.10096v1.6742c-1.587 0-2.4166-0.17518-3.0916-1.6934h-0.0407v1.4977"/>
                            <path d="m135.55 52.117c0 3.0321-4.9995 2.9943-4.9995 4.7477 0 0.8657 0.6778 1.3383 1.5489 1.3383 1.0304 0 1.587-0.55175 1.5662-1.5939h1.8047c0.13843 1.9683-1.3864 2.8147-3.1704 2.8147-2.8178 0-3.4538-1.6742-3.4538-2.7172 0-2.9749 4.9993-3.014 4.9993-4.7867 0-1.0258-0.75373-1.5182-1.7287-1.5182-1.6422 0-1.6629 1.3411-1.6629 1.9113h-1.8429c-0.0621-2.2844 1.2898-3.2305 3.4506-3.2305 1.981 0 3.4885 0.84636 3.4885 3.0345"/>
                            <path d="m144.52 56.038c0.10019 2.2262-1.0718 3.3851-3.0737 3.3851-3.4676 0-3.8064-2.4012-3.8064-5.3177 0-4.3936 1.6872-5.0236 3.8064-5.0236 1.1134 0 3.2155 0.70899 3.1532 3.5073h-1.7045c0.0588-1.7931-1.0718-2.1882-1.4487-2.1882-1.6836 0-2.0985 1.1624-2.0985 4.395 0 2.7194 0.85056 3.308 2.0985 3.308 0.61549 0 1.428-0.43408 1.3899-2.0659h1.6838"/>
                            <path d="m154.27 49.279v7.0524c0 2.2453-0.95058 3.0917-2.6552 3.0917-1.3064 0-2.0605-0.31395-2.7135-1.4771h-0.0795v5.5548h-1.625v-14.222h1.625v5.8522c0 1.673 0.41564 2.9728 2.0407 2.9728 1.3896 0 1.7826-0.86694 1.7826-2.0886v-6.7364h1.625"/>
                            <path d="m162.49 52.627c0-1.6544-1.0886-2.3037-1.9631-2.3037-1.1524 0-1.7047 0.80731-1.7047 2.0083v6.8959h-1.625v-7.585c0-1.6936 0.95059-2.5605 2.696-2.5605 1.0515 0 2.0021 0.49248 2.5384 1.3981h0.0584v-1.2009h1.7259c-0.0637 0.69035-0.1009 1.3795-0.1009 2.0681v7.8803h-1.625v-6.6004"/>
                            <path d="m174.1 49.279v6.8945c0 1.9704-0.53636 3.2496-2.6765 3.2496-1.2869 0-2.041-0.3537-2.6765-1.4771h-0.0797v1.2813h-1.7224c0.0567-0.69052 0.0974-1.3775 0.0974-2.0693v-7.8791h1.625v5.8914c0 1.3589 0.26021 2.9336 2.0428 2.9336 1.3878 0 1.7649-0.86694 1.7649-1.9305v-6.8945h1.625"/>
                            <path d="m182.13 54.304c0-1.3809 0.0584-3.6846-1.9029-3.6846-1.209 0-1.9454 0.74751-1.9454 3.9388 0 1.3205 0.0619 3.526 1.9047 3.526 2.0392 0 1.9436-2.3029 1.9436-3.7801zm-0.0389 3.7032h-0.0407c-0.45671 0.96314-1.2869 1.4166-2.3384 1.4166-0.81251 0-3.1314-0.2932-3.1314-4.8657 0-2.9542 0.53282-5.2785 3.25-5.2785 0.87093 0 1.7843 0.45343 2.1986 1.24h0.0619v-2.0679c0-1.0238-0.61602-1.7142-1.7454-1.7142-0.89216 0-1.5082 0.51182-1.5259 1.4393h-1.825c-0.13807-1.8324 1.3701-2.6588 3.0323-2.6588 2.1986 0 3.689 0.531 3.689 2.7572v10.953h-1.625v-1.2208"/>
                            <path d="m70.155 80.334v-1.2208h1.5448v-8.7276h1.627v8.7276h2.0226v1.2208h-2.0226v1.6936c0 0.80731 0.29597 1.5376 2.0226 1.4208v1.1591c-0.23862 0.04116-0.43829 0.0605-0.77587 0.0605-1.4466 0-2.8737-0.39363-2.8737-2.4047v-1.9293h-1.5448"/>
                            <path d="m79.627 84.056h-1.8635v-2.0473h1.8635zm3.4899 0h-1.8649v-2.0473h1.8649zm-0.85322-10.323c0-1.6544-1.0904-2.3037-1.9638-2.3037-1.1478 0-1.7031 0.80942-1.7031 2.0083v6.8959h-1.6271v-7.585c0-1.6936 0.95288-2.5605 2.6969-2.5605 1.0502 0 2.0017 0.49248 2.5377 1.3981h0.05948v-1.2009h1.7245c-0.05806 0.69035-0.09754 1.3795-0.09754 2.0681v7.8803h-1.627v-6.6004"/>
                            <path d="m88.509 80.334h-1.625v-9.9484h1.625v5.8694c0 1.3411 0.45635 2.7014 2.2617 2.7014 0.29739 0 0.57194-0.06174 0.87128-0.10096v1.6742c-1.587 0-2.4202-0.17518-3.0936-1.6934h-0.03947v1.4977"/>
                            <path d="m98.409 77.043h1.9429c1.8636 0 3.2693-0.39152 3.2693-2.6588 0-1.0423-0.69143-2.4232-2.6352-2.4232h-2.577zm0 5.9912h2.577c1.5268 0 2.2003-0.96666 2.2003-2.147 0-1.381-0.69284-2.2482-2.1201-2.2652h-2.6572zm2.7762-12.649c1.6243 0 4.2996 0.3537 4.2996 3.9986 0 1.9499-0.89128 3.1728-2.9318 3.4099v0.09621c1.8435 0.4135 2.4575 1.5974 2.4575 3.3714 0 0.27332-0.0797 1.1199-0.57601 1.8915-0.53389 0.78656-1.208 1.4544-3.1913 1.4544h-4.6577v-14.222h4.5996"/>
                            <path d="m109.72 80.334h-1.6256v-9.9484h1.6256zm-1.7245 2.5421h1.8249v1.7314h-1.8249v-1.7314"/>
                            <polyline points="114.32 84.607 112.69 84.607 112.69 70.386 114.32 70.386 114.32 84.607"/>
                            <path d="m122.43 75.764c0-2.0082 0-4.2562-1.8249-4.2562-2.0433 0-2.0433 2.169-2.0433 3.6653 0 2.659 0.23933 4.0378 1.9838 4.0378 1.804 0 1.8844-2.1277 1.8844-3.4468zm0 3.5671h-0.0623c-0.55318 0.78532-1.2467 1.1988-2.1989 1.1988-3.2313 0-3.3115-2.8546-3.3115-5.3383 0-4.373 1.6264-5.003 3.232-5.003 1.0517 0 1.7438 0.45343 2.3026 1.3809h0.0381v-1.1837h1.6248v14.222h-1.6248v-5.2765"/>
                            <path d="m132.4 73.733c0-1.6544-1.0933-2.3037-1.9638-2.3037-1.1511 0-1.7043 0.80942-1.7043 2.0083v6.8959h-1.6293v-7.585c0-1.6936 0.95146-2.5605 2.6976-2.5605 1.051 0 2.0052 0.49248 2.5377 1.3981h0.0621v-1.2009h1.7218c-0.0588 0.69035-0.10036 1.3795-0.10036 2.0681v7.8803h-1.6215v-6.6004"/>
                            <path d="m144.02 70.386v6.8945c0 1.9704-0.53583 3.2496-2.676 3.2496-1.2896 0-2.0433-0.3537-2.676-1.4771h-0.083v1.2813h-1.7217c0.0588-0.69052 0.10019-1.3775 0.10019-2.0693v-7.8791h1.6215v5.8914c0 1.3589 0.25933 2.9336 2.0433 2.9336 1.3899 0 1.7668-0.86694 1.7668-1.9305v-6.8945h1.6248"/>
                            <path d="m152.05 75.41c0-1.3809 0.0566-3.6846-1.9065-3.6846-1.2094 0-1.9424 0.74751-1.9424 3.9388 0 1.3205 0.0588 3.526 1.9052 3.526 2.0392 0 1.9436-2.3029 1.9436-3.7801zm-0.0425 3.7033h-0.0372c-0.4567 0.96314-1.2904 1.4166-2.3419 1.4166-0.8118 0-3.1318-0.2932-3.1318-4.8657 0-2.9542 0.53583-5.2785 3.2504-5.2785 0.87092 0 1.7843 0.45343 2.2021 1.24h0.0584v-2.0659c0-1.0258-0.61601-1.7161-1.7418-1.7161-0.89571 0-1.5114 0.51376-1.5287 1.4393h-1.8254c-0.13825-1.831 1.369-2.6588 3.0355-2.6588 2.1986 0 3.6855 0.531 3.6855 2.7572v10.953h-1.625v-1.2208"/>
                            <path d="m72.754 98.149h1.9436c1.8636 0 3.2707-0.39152 3.2707-2.6588 0-1.0423-0.69426-2.4232-2.6353-2.4232h-2.5791zm0 5.9912h2.5791c1.5248 0 2.2003-0.96666 2.2003-2.147 0-1.381-0.69568-2.2482-2.1242-2.2652h-2.6553zm2.7742-12.649c1.6284 0 4.3036 0.3537 4.3036 3.9986 0 1.9499-0.89128 3.1728-2.9346 3.4099v0.09621c1.8449 0.4135 2.4604 1.5974 2.4604 3.3714 0 0.27332-0.07966 1.1199-0.57601 1.8915-0.53388 0.78656-1.208 1.4544-3.1913 1.4544h-4.6605v-14.222h4.5984"/>
                            <path d="m87.498 94.84c0-1.6544-1.0925-2.3037-1.9651-2.3037-1.148 0-1.7045 0.80942-1.7045 2.0082v6.8959h-1.6243v-7.585c0-1.6936 0.95076-2.5605 2.6953-2.5605 1.0497 0 2.0026 0.49248 2.5365 1.3981h0.06213v-1.2009h1.7218c-0.05753 0.69035-0.09754 1.3795-0.09754 2.0681v7.8803h-1.6243v-6.6004"/>
                            <path d="m99.116 91.492v6.8945c0 1.9704-0.53654 3.2496-2.6788 3.2496-1.2874 0-2.0412-0.3537-2.6753-1.4771h-0.08019v1.2813h-1.7247c0.06089-0.69052 0.10037-1.3775 0.10037-2.0693v-7.8791h1.6243v5.8914c0 1.3589 0.25791 2.9336 2.0433 2.9336 1.3869 0 1.7638-0.86694 1.7638-1.9305v-6.8945h1.6271"/>
                            <path d="m107.1 96.87c0-2.0082 0-4.2562-1.8234-4.2562-2.0405 0-2.0405 2.169-2.0405 3.6653 0 2.659 0.2365 4.0378 1.9824 4.0378 1.802 0 1.8815-2.1277 1.8815-3.4468zm0 3.5671h-0.0573c-0.5546 0.78533-1.2503 1.1988-2.201 1.1988-3.2327 0-3.3122-2.8546-3.3122-5.3383 0-4.373 1.6257-5.003 3.2327-5.003 1.0502 0 1.7445 0.45343 2.2984 1.3809h0.0395v-1.1837h1.627v14.222h-1.627v-5.2765"/>
                            <path d="m112.93 97.165c0.0195 2.7563 0.87269 3.2496 1.9036 3.2496 1.188 0 2.0033-0.35248 2.0033-3.2496zm5.6307-1.2217v0.84724c0 3.2889-0.71567 4.8449-3.568 4.8449-3.4699 0-3.8073-2.4012-3.8073-5.3177 0-4.3936 1.6843-5.0236 3.8073-5.0236 2.1014 0 3.469 1.0045 3.4885 3.2099h-1.784c-0.0595-1.0011-0.6362-1.8908-1.744-1.8908-1.2696 0-2.0233 0.55298-2.0233 3.33h5.6307"/>
                            <path d="m127.53 94.329c0 3.0321-4.996 2.9943-4.996 4.7477 0 0.8657 0.67425 1.3383 1.5455 1.3383 1.0302 0 1.5861-0.55175 1.5661-1.5939h1.8047c0.13843 1.9683-1.3898 2.8147-3.1737 2.8147-2.8151 0-3.4492-1.6742-3.4492-2.7172 0-2.9749 4.9981-3.014 4.9981-4.7867 0-1.0258-0.75374-1.5182-1.7252-1.5182-1.6457 0-1.6664 1.3411-1.6664 1.9113h-1.8442c-0.0595-2.2844 1.2874-3.2305 3.4518-3.2305 1.981 0 3.4885 0.84847 3.4885 3.0345"/>
                            <path d="m136.6 91.492v6.6973c0 0.37446 0.0761 1.3603 0.55672 1.7534 0.4321 0.3537 0.61195 0.37428 1.2266 0.37428 1.3112 0 1.5877-0.92533 1.5877-1.9305v-6.8945h1.625v7.5644c0 2.3449-1.6872 2.5797-2.7347 2.5797-0.91288 0-1.8256-0.21423-2.3788-1.2792-0.38024 0.90493-1.4314 1.2792-2.3407 1.2792-1.1685 0-2.0224-0.37428-2.4961-1.4372h-0.0414v1.2414h-1.7254c0.0588-0.69052 0.10037-1.3775 0.10037-2.0693v-7.8791h1.625v6.6973c0 0.37446 0.0795 0.96666 0.37669 1.46 0.23862 0.37446 0.91288 0.66766 1.4073 0.66766 1.3103 0 1.5834-0.92533 1.5834-1.9305v-6.8945h1.6284"/>
                            <path d="m146.1 101.44h-1.6257v-9.9484h1.6257zm-1.7252 2.5421h1.8254v1.7314h-1.8254v-1.7314"/>
                            <path d="m156.11 91.492v6.8945c0 1.9704-0.53282 3.2496-2.6765 3.2496-1.2904 0-2.041-0.3537-2.6765-1.4771h-0.0797v1.2813h-1.725c0.0581-0.69052 0.0968-1.3775 0.0968-2.0693v-7.8791h1.6282v5.8914c0 1.3589 0.26021 2.9336 2.0428 2.9336 1.3878 0 1.7649-0.86694 1.7649-1.9305v-6.8945h1.625"/>
                            <path d="m160.61 101.44h-1.625v-9.9484h1.625zm-1.7241 2.5421h1.8215v1.7314h-1.8215v-1.7314"/>
                            <path d="m169.85 94.329c0 3.0321-4.999 2.9943-4.999 4.7477 0 0.8657 0.67444 1.3383 1.5454 1.3383 1.0338 0 1.5896-0.55175 1.5666-1.5939h1.8073c0.13808 1.9683-1.3896 2.8147-3.1739 2.8147-2.8146 0-3.4501-1.6742-3.4501-2.7172 0-2.9749 4.999-3.014 4.999-4.7867 0-1.0258-0.75586-1.5182-1.7242-1.5182-1.6498 0-1.6675 1.3411-1.6675 1.9113h-1.8463c-0.0549-2.2844 1.2905-3.2305 3.4554-3.2305 1.9773 0 3.4872 0.84847 3.4872 3.0345"/>
                            <path d="m170.93 101.44v-1.2208h1.6427v-7.0732c0-1.1425 0.69567-1.7726 2.241-1.7726 0.53636 0 1.071 0.1182 1.6073 0.15935v1.2388c-0.35581-0.03993-0.61602-0.07897-0.73285-0.07897-1.487 0-1.487 0.81065-1.487 1.4393v6.0874h2.1791v1.2208h-2.1791v2.6383l-1.6286-0.72623v-1.912h-1.6427"/>
                            <path d="m179.49 97.165c0.0212 2.7563 0.87269 3.2496 1.9065 3.2496 1.1896 0 2.0021-0.35248 2.0021-3.2496zm5.6327-1.2217v0.84724c0 3.2889-0.71161 4.8449-3.5687 4.8449-3.4695 0-3.8059-2.4012-3.8059-5.3177 0-4.3936 1.6834-5.0236 3.8059-5.0236 2.0994 0 3.4678 1.0045 3.489 3.2099h-1.7843c-0.0619-1.0011-0.63195-1.8908-1.7418-1.8908-1.2728 0-2.0268 0.55298-2.0268 3.33h5.6327"/>
                            <path d="m189.15 101.44h-1.625v-9.9484h1.625v5.8694c0 1.3411 0.45493 2.7014 2.2605 2.7014 0.29739 0 0.57353-0.0617 0.87092-0.10095v1.6742c-1.5861 0-2.4163-0.17518-3.0907-1.6934h-0.0407v1.4977"/>
                            <path d="m195.64 101.44h-1.6286v-9.9484h1.6286zm-1.7259 2.5421h1.825v1.7314h-1.825v-1.7314"/>
                            <path d="m203.8 94.84c0-1.6544-1.0851-2.3037-1.9614-2.3037-1.1506 0-1.7029 0.80942-1.7029 2.0082v6.8959h-1.625v-7.585c0-1.6936 0.95058-2.5605 2.696-2.5605 1.0515 0 2.0021 0.49248 2.5384 1.3981h0.0549v-1.2009h1.7277c-0.062 0.69035-0.0991 1.3795-0.0991 2.0681v7.8803h-1.6286v-6.6004"/>
                            <path d="m214.97 91.492v6.6973c0 0.37446 0.0779 1.3603 0.55583 1.7534 0.43546 0.3537 0.61248 0.37428 1.2267 0.37428 1.3117 0 1.5878-0.92533 1.5878-1.9305v-6.8945h1.6286v7.5644c0 2.3449-1.687 2.5797-2.7385 2.5797-0.9134 0-1.8215-0.21423-2.3791-1.2792-0.37705 0.90493-1.4285 1.2792-2.3402 1.2792-1.1683 0-2.0233-0.37428-2.4959-1.4372h-0.0425v1.2414h-1.7242c0.062-0.69052 0.0991-1.3775 0.0991-2.0693v-7.8791h1.625v6.6973c0 0.37446 0.0796 0.96666 0.37704 1.46 0.23897 0.37446 0.91341 0.66766 1.4108 0.66766 1.3028 0 1.5843-0.92533 1.5843-1.9305v-6.8945h1.625"/>
                        </g>
                        <polyline points="52.114 35.207 58.386 35.207 58.386 0.028142 52.114 0.028142 52.114 35.207" fill="#f2cf04"/>
                        <polyline points="52.114 70.508 58.386 70.508 58.386 35.207 52.114 35.207 52.114 70.508" fill="#ed1c24"/>
                        <g fill="#231f20">
                            <polyline points="52.114 105.56 58.386 105.56 58.386 70.386 52.114 70.386 52.114 105.56"/>
                            <path d="m32.55 99.613c0 2.0047-1.4666 3.5898-1.9824 4.0383l-0.37209-0.0844c0.54911-0.66643 1.517-1.7808 1.517-3.2579 0-2.9063-3.0914-5.4333-6.6201-5.4793 0.02691-0.29883 0.02567-0.56336 0.02567-0.78867 0-0.41562-0.02708-0.82244-0.07753-1.2175 4.005 0.07211 7.5094 3.3061 7.5094 6.7895zm-5.5208-24.065c-1.7093 0-2.0792 0.1787-2.5301 0.1787-0.2896 0-0.56486-0.02744-0.56486-0.43496 0-0.283 0.32022-0.69527 0.60858-0.91161 0.40236 0.39644 0.95412 0.48228 1.8454 0.48228 0.41705 0 0.98474-0.08038 1.235-0.11345-0.03452-0.24518-0.08444-0.56125-0.08444-1.0064 0-0.23358 0.0083-0.50637 0.0083-0.795 0-1.0017-0.14728-1.5341-0.49919-1.9361 0.07612-0.04591 0.27792-0.08724 0.399-0.08724 0.65479 0 0.82207 0.33119 0.82207 2.02 0 0.50971 0.0416 0.98249 0.0416 1.104 0.91482-0.69386 1.8468-1.9307 1.8468-2.8251 0.2988 0.15249 0.65001 0.601 0.65001 0.93782 0 0.60926-1.0248 1.5163-2.1123 2.6107 0.15135 0.0357 0.55512 0.15126 0.88703 0.15126 0.85411 0 1.5448-0.14088 1.9465-0.61155 0.15914 0.17184 0.29048 0.68841 0.29048 0.98038 0 0.50848-0.29385 0.49125-0.5068 0.49125-0.90934 0-2.033-0.14088-2.8372-0.2728-0.29243 0.38835-2.1559 2.8926-2.6393 4.2288-0.13896 0.04819-0.24676 0.08741-0.47564 0.08741-0.44821 0-0.56504-0.31061-0.68045-0.7366 1.0269-1.2388 2.015-2.5853 2.3495-3.5418zm-10.203 3.5418c-0.11559 0.42599-0.22959 0.7366-0.67833 0.7366-0.23101 0-0.33881-0.03922-0.47441-0.08741-0.4868-1.3362-2.3483-3.8404-2.6429-4.2288-0.80065 0.13191-1.9277 0.2728-2.8356 0.2728-0.21437 0-0.5068 0.01724-0.5068-0.49125 0-0.29197 0.12993-0.80854 0.29102-0.98038 0.40041 0.47067 1.0925 0.61155 1.9451 0.61155 0.33403 0 0.73515-0.11556 0.8865-0.15126-1.0876-1.0944-2.1123-2.0014-2.1123-2.6107 0-0.33682 0.35333-0.78532 0.65125-0.93782 0 0.89437 0.93288 2.1312 1.8456 2.8251 0-0.12154 0.04355-0.59431 0.04355-1.104 0-1.6888 0.16728-2.02 0.82154-2.02 0.11966 0 0.32146 0.04133 0.3997 0.08724-0.35209 0.40207-0.50078 0.93448-0.50078 1.9361 0 0.28863 0.01115 0.56142 0.01115 0.795 0 0.44516-0.05257 0.76123-0.08638 1.0064 0.24889 0.03307 0.8187 0.11345 1.2356 0.11345 0.88933 0 1.4418-0.08583 1.8449-0.48228 0.28907 0.21634 0.60858 0.62861 0.60858 0.91161 0 0.40752-0.27455 0.43496-0.56504 0.43496-0.45228 0-0.82083-0.1787-2.5308-0.1787 0.33616 0.95646 1.3221 2.303 2.349 3.5418zm-7.0309 21.22c0 1.4771 0.96811 2.5915 1.5151 3.2579l-0.36855 0.0844c-0.51937-0.4485-1.9845-2.0336-1.9845-4.0383 0-3.5075 3.5541-6.764 7.5958-6.7916-0.04284 0.38132-0.0678 0.78532-0.0678 1.2196 0 0.26998 0.01115 0.53592 0.03381 0.78532-3.5706 0-6.7238 2.5489-6.7238 5.4827zm10.858 2.7014c0.18463 0.42107 0.43139 0.92058 0.43139 1.4702 0 1.5219-1.2694 2.2468-2.9691 2.2468-0.87269 0-1.3138-0.27966-1.3138-0.56143 0-0.28159 0.28907-0.9 0.3997-1.091 0.31314 0.13948 0.88154 0.30446 1.2101 0.30446 1.1665 0 2.0378-1.3007 2.2417-2.369zm0.83534 1.9463c0.9936-0.19225 1.6705 1.0685 0.72666 1.2931 0.13064-0.41561-0.50468-0.70899-0.50468-0.70899s-0.24216 0.5565 0.07187 0.8738c-0.57814 0.28176-0.72471-0.0596-0.73568-0.41351 0.22747-0.30235 0.37545-0.65482 0.44184-1.0444zm3.216-8.6416c0.15896-0.01038 0.31031-0.01864 0.46945-0.01864 2.7963 0 5.5705 1.7967 5.5705 4.0997 0 1.2284-0.55601 2.0872-1.2427 3.0388-0.40307-0.0674-0.7702-0.10517-1.0593-0.10517-1.2667 0-1.9541 0.67539-2.004 1.3385 0 0.59554 0.48821 1.0477 1.2462 1.0477 1.1761 0 3.321-1.0945 5.4812-1.0945-0.21224-0.15935-0.56557-0.32767-0.99147-0.48579 1.266-1.1336 2.1123-2.652 2.4354-4.2754l3.3115-5.2663c0.55512-0.87942 1.7321-2.6073 3.503-3.9574-2.1408 0-3.5639-0.04942-5.3735 2.7964l-1.6969 2.6988c-0.12515-0.34913-0.28146-0.68912-0.46255-1.0224l3.375-5.3692c0.56291-0.88769 1.7247-2.604 3.5051-3.9588-2.1421 0-3.5611-0.05153-5.3734 2.7962l-2.9056 4.6219c-0.2172-0.22812-0.44608-0.45343-0.68948-0.66994l4.1018-6.52c0.56433-0.89314 1.7224-2.5985 3.5044-3.9574-2.143 0-3.5625-0.04942-5.3748 2.7983l-3.9962 6.3552c-0.26482-0.16692-0.533-0.32504-0.80968-0.47753l4.8763-7.7569c0.56291-0.88962 1.7204-2.599 3.5044-3.9574-2.1416 0-3.5639-0.05013-5.3721 2.7978l-5.0236 7.9889c-0.29721-0.11538-0.6008-0.22179-0.90721-0.31941l5.6785-9.0299c0.55247-0.8738 1.739-2.6087 3.5016-3.9553-2.1416 0-3.5632-0.05013-5.3721 2.7976l-6.0504 9.6221-0.18516-0.03219c-0.16392-0.52079-0.27809-1.0066-0.27809-1.491 0-3.0229 1.9964-5.6922 4.3943-7.7533-0.15489-0.06525-0.42165-0.09128-0.6693-0.09128-0.49228 0-0.81322 0.02955-1.0386 0.06719 0.55725-1.2558 1.7495-2.874 2.3517-3.712 0.78489 0.13948 1.9265 0.25081 2.6733 0.25081 0.78135 0 0.86774-0.45484 0.86774-0.86236 0-0.70424-0.33191-1.2709-0.71639-1.5837-0.14445 0.36426-0.43635 0.84513-1.8815 0.84513l-0.14586-0.0047c0.42396-0.46926 1.7447-1.5307 1.7447-2.3875 0-0.56547-0.62452-1.4141-1.4501-1.4141 0.05187 0.18222 0.04284 0.35054 0.04284 0.4763 0 0.69176-0.61673 1.5024-1.138 2.0679 0.0131-0.16832 0.0069-0.14968 0.0069-0.34684 0-1.6373-0.14799-2.3896-1.1956-2.3896-0.51246 0-0.86792 0.28018-0.98882 0.36267 0.67904 0.62316 0.71568 1.113 0.71568 2.0302l-0.0069 0.795c-0.0014 0.20948 0.0019 0.48632 0.03452 0.68912-0.37474 0.05154-0.52344 0.04942-0.81322 0.04942 0 0-1.488 0.11679-1.8454-0.6506-0.40254 0.36549-0.98687 0.88417-0.98687 1.4612 0 0.37798 0.17914 0.8059 0.94315 0.8059 0.29048 0 1.2025-0.17852 1.966-0.17852-0.20392 0.45343-1.118 1.7794-1.9065 2.7447-0.1209-0.37305-0.30836-0.7797-0.72329-1.1082-0.05735 0.62052-0.42166 2.5751-1.396 3.717-0.11347-0.7709-0.26694-1.5643-0.26694-3.2359 0-4.0687 0.98457-7.0746 3.0757-7.6503-0.27101-0.47207-0.84561-0.89455-1.443-0.89455-0.76489 0-1.1818 0.86008-1.6071 1.6728-0.22056-0.601-0.83039-2.0645-1.4452-2.0645-0.61195 0-1.2232 1.4635-1.443 2.0645-0.4252-0.81276-0.84225-1.6728-1.6091-1.6728-0.59531 0-1.1706 0.42248-1.4416 0.89455 2.0888 0.57567 3.0757 3.5815 3.0757 7.6503 0 1.6716-0.15294 2.465-0.26836 3.2359-0.97218-1.1418-1.3386-3.0964-1.3947-3.717-0.41493 0.32855-0.60221 0.7352-0.72258 1.1082-0.78896-0.96526-1.7017-2.2912-1.9084-2.7447 0.76542 0 1.6769 0.17852 1.9672 0.17852 0.76471 0 0.94527-0.42793 0.94527-0.8059 0-0.57708-0.5877-1.0958-0.98882-1.4612-0.3581 0.76738-1.8449 0.6506-1.8449 0.6506-0.28907 0-0.43829 0.0021-0.81392-0.04942 0.03116-0.2028 0.03806-0.47964 0.03328-0.68912l-0.0041-0.795c0-0.91724 0.03452-1.4071 0.71426-2.0302-0.12108-0.08249-0.47582-0.36267-0.98882-0.36267-1.0476 0-1.197 0.75226-1.197 2.3896 0 0.19717-0.0062 0.17852 9e-3 0.34684-0.52344-0.56547-1.1389-1.3761-1.1389-2.0679 0-0.12576-0.0083-0.29408 0.0416-0.4763-0.82295 0-1.4487 0.84864-1.4487 1.4141 0 0.85673 1.3228 1.9182 1.7447 2.3875l-0.14675 0.0047c-1.4438 0-1.7376-0.48087-1.8808-0.84513-0.38572 0.31272-0.71763 0.87942-0.71763 1.5837 0 0.40752 0.0878 0.86236 0.86915 0.86236 0.74878 0 1.8891-0.11134 2.6731-0.25081 0.60097 0.83809 1.793 2.4562 2.3504 3.712-0.2234-0.03764-0.54291-0.06719-1.0373-0.06719-0.24676 0-0.51583 0.02603-0.66718 0.09128 2.3952 2.0612 4.3909 4.7304 4.3909 7.7533 0 0.48439-0.11205 0.97018-0.27809 1.491l-0.1825 0.03219-6.0512-9.6221c-1.8101-2.8477-3.2312-2.7976-5.3719-2.7976 1.7626 1.3466 2.9477 3.0815 3.5009 3.9553l5.6784 9.0299c-0.30695 0.09762-0.6077 0.20403-0.9065 0.31941l-5.0229-7.9889c-1.8109-2.8479-3.2334-2.7978-5.3721-2.7978 1.7827 1.3584 2.9388 3.0678 3.5018 3.9574l4.8789 7.7569c-0.27862 0.15249-0.54769 0.31061-0.81109 0.47753l-3.9967-6.3552c-1.8116-2.8477-3.2313-2.7983-5.3741-2.7983 1.7826 1.3589 2.9415 3.0643 3.5044 3.9574l4.1004 6.52c-0.24145 0.21651-0.47104 0.44182-0.68736 0.66994l-2.9056-4.6219c-1.813-2.8477-3.2327-2.7962-5.3742-2.7962 1.7792 1.3548 2.9422 3.0711 3.5051 3.9588l3.3738 5.3692c-0.17914 0.3333-0.33474 0.67329-0.4606 1.0224l-1.6983-2.6988c-1.8102-2.8458-3.2313-2.7964-5.3712-2.7964 1.7714 1.3501 2.9456 3.078 3.503 3.9574l3.3107 5.2663c0.32217 1.6234 1.1685 3.1418 2.4347 4.2754-0.42396 0.15812-0.77941 0.32644-0.99236 0.48579 2.1616 0 4.3045 1.0924 5.4806 1.0924 0.76064 0 1.2467-0.45009 1.2467-1.0456-0.04762-0.66309-0.73639-1.3385-2.0045-1.3385-0.28694 0-0.65408 0.0378-1.0587 0.10517-0.68576-0.95153-1.2411-1.8104-1.2411-3.0388 0-2.303 2.7728-4.0997 5.5718-4.0997 0.15772 0 0.30907 0.0083 0.46679 0.01864 0.55459 1.8653 1.7342 3.0903 2.6774 4.2872-1.1313 0.40876-2.3904 1.4757-2.3904 1.958 0.14321 0.0825 2.3081-0.59431 2.5329-0.65394 0.04567-0.0125 0.09258-0.0158 0.14445 0 0.2634 0.079 0.48414 0.4617 0.48414 0.50145-0.23172 0.0378-1.5898 0.21299-2.5191 0.54753-0.70524 0.25626-1.0621 0.72148-1.0621 0.89877 0.22552 0.0357 1.0856-0.41228 2.3469-0.41228 0.46538 0 0.55725 0.0187 1.0207 0.0756-0.32571 0.7695-0.93766 1.4201-1.625 1.4201-0.27739 0-0.88243-0.17184-1.3892-0.42248-0.35191 0.54278-0.66169 1.2593-0.66169 1.6508 0 0.46047 0.45989 1.0011 1.7549 1.0011 0.36235 0 0.70046-0.031 1.0157-0.0893 0.25243-0.0461 0.46538-0.10307 0.69426-0.19242-0.01788 0.031-0.02832 0.0997-0.02832 0.16357 0 0.1787 0.1625 0.36549 0.77162 0.36549 1.0656 0 2.1589-0.34702 3.4996-0.34702 0.34784 0 0.58292 0.0104 0.78419 0.0948-0.08656-0.26435-0.46343-0.65604-0.80914-0.97211 0.21224-0.29056 0.76755-0.98794 0.76755-2.1161 0-1.8125-1.2025-3.3068-1.2025-5.1392 0-1.0889 0.84366-2.0475 1.0961-2.6196"/>
                            <path d="m75.198 147.25c0 1.0465-0.43298 1.6129-1.5862 1.6129-0.35899 0-1.6471-0.0616-1.6471-1.9207v-3.0041c0-1.9453 0.56911-2.4378 1.6471-2.4378 0.8187 0 1.3629 0.22161 1.5993 0.39398v2.6594h-1.6486v0.98496h2.788v-4.3215c-0.7309-0.39398-1.5855-0.66484-2.7388-0.66484-1.8953 0-2.8123 0.97264-2.8123 3.435v2.9179c0 1.7729 0.91695 2.9056 2.8123 2.9056 1.9334 0 2.8509-0.70178 2.7762-2.5609h-1.1899"/>
                            <polyline points="78.482 140.74 78.482 149.63 83.091 149.63 83.091 148.64 79.622 148.64 79.622 145.79 82.844 145.79 82.844 144.8 79.622 144.8 79.622 141.72 83.165 141.72 83.165 140.74 78.482 140.74"/>
                            <polyline points="84.591 140.74 84.591 149.63 89.027 149.63 89.027 148.64 85.731 148.64 85.731 145.79 88.854 145.79 88.854 144.8 85.731 144.8 85.731 140.74 84.591 140.74"/>
                            <path d="m90.142 143.99v2.9179c0 1.7729 0.91677 2.9056 2.8135 2.9056 1.8953 0 2.8123-1.1327 2.8123-2.9056v-2.9179c0-2.4624-0.91695-3.435-2.8123-3.435-1.8967 0-2.8135 0.97264-2.8135 3.435zm2.317 6.6854h-1.1637v1.2804h1.1637zm2.1437-6.7346v3.0041c0 1.8591-1.2883 1.9207-1.6471 1.9207-0.35952 0-1.6484-0.0616-1.6484-1.9207v-3.0041c0-1.9453 0.56964-2.4378 1.6484-2.4378 1.078 0 1.6471 0.49247 1.6471 2.4378zm0.03735 6.7346h-1.1644v1.2804h1.1644v-1.2804"/>
                            <path d="m98.865 144.83v-4.0876h-1.1396v8.8892h3.0854c1.5862 0 2.1435-1.1081 2.1435-2.2162 0-1.0465-0.58221-1.8468-1.636-2.0315v-0.0246c1.0283-0.16006 1.4002-0.50479 1.4625-2.29 0.0117-0.38167 0.13613-1.7729 0.30907-2.327h-1.1894c-0.32217 0.61559-0.24747 1.7729-0.34642 2.9549-0.0871 1.0834-0.9674 1.1327-1.3512 1.1327zm0 0.98495h1.71c0.81729 0 1.2142 0.70178 1.2142 1.4774 0 0.64022-0.32217 1.3543-1.2025 1.3543h-1.7217v-2.8317"/>
                            <path d="m104.66 149.63h2.7507c1.1402 0 1.9582-0.4063 2.4042-1.3543 0.35952-0.75103 0.39617-2.524 0.39617-2.8071 0-1.896-0.17366-2.9918-0.54486-3.5828-0.48344-0.76334-1.3885-1.145-2.9491-1.145h-2.0571zm1.1395-7.9043h1.078c1.5862 0 2.1685 0.59097 2.1685 2.6594v1.7975c0 1.7975-0.55743 2.4624-1.7466 2.4624h-1.4999v-6.9193"/>
                            <polyline points="112.21 140.74 112.21 149.63 116.82 149.63 116.82 148.64 113.35 148.64 113.35 145.79 116.57 145.79 116.57 144.8 113.35 144.8 113.35 141.72 116.89 141.72 116.89 140.74 112.21 140.74"/>
                            <path d="m119.52 144.83v-4.0876h-1.1402v8.8892h3.0859c1.5855 0 2.1437-1.1081 2.1437-2.2162 0-1.0465-0.58292-1.8468-1.6367-2.0315v-0.0246c1.0288-0.16006 1.4002-0.50479 1.4623-2.29 0.0126-0.38167 0.13701-1.7729 0.30978-2.327h-1.1892c-0.32306 0.61559-0.24836 1.7729-0.34643 2.9549-0.0878 1.0834-0.96739 1.1327-1.3512 1.1327zm0 0.98495h1.7093c0.81817 0 1.215 0.70178 1.215 1.4774 0 0.64022-0.32288 1.3543-1.2025 1.3543h-1.7218v-2.8317"/>
                            <polyline points="130.31 149.63 130.31 148.64 127.96 148.64 127.96 140.74 126.82 140.74 126.82 148.64 124.47 148.64 124.47 149.63 130.31 149.63"/>
                            <polyline points="137.35 140.74 135.99 140.74 133.4 149.63 134.64 149.63 136.68 141.81 136.71 141.81 138.8 149.63 139.97 149.63 137.35 140.74"/>
                            <path d="m141.09 143.99v2.9179c0 1.7729 0.91624 2.9056 2.8123 2.9056 1.8953 0 2.813-1.1327 2.813-2.9056v-2.9179c0-2.4624-0.91765-3.435-2.813-3.435-1.896 0-2.8123 0.97264-2.8123 3.435zm4.4601-0.0493v3.0041c0 1.8591-1.2883 1.9207-1.6479 1.9207-0.35952 0-1.6484-0.0616-1.6484-1.9207v-3.0041c0-1.9453 0.57035-2.4378 1.6484-2.4378 1.078 0 1.6479 0.49247 1.6479 2.4378"/>
                            <polyline points="149.78 140.74 148.72 140.74 148.72 149.63 150.56 149.63 152.82 142.17 152.84 142.17 155.12 149.63 157.01 149.63 157.01 140.74 155.87 140.74 155.87 148.64 155.84 148.64 153.34 140.74 152.26 140.74 149.81 148.64 149.78 148.64 149.78 140.74"/>
                        </g>
                    </g>
                </g>
            </g>
        </g>
        <g id="OKFD-Logo" transform="matrix(1.1148 0 0 1.1148 420.13 -14.369)">
            <g id="Open_Knowledge_Foundation_Deutschland_Logo" transform="translate(38,70)" fill-rule="nonzero">
                <g fill="#000">
                    <g id="Group" transform="translate(108,22)">
                        <path id="Shape" d="m4.5372 8.7393c-2.6769 0-4.4615-1.8953-4.4615-4.3621 0-2.4669 1.7846-4.3471 4.4615-4.3471 2.6618 0 4.4464 1.8953 4.4464 4.3471 0 2.4669-1.7846 4.3621-4.4464 4.3621zm0-7.0696c-1.5275 0-2.4198 1.0228-2.4198 2.7226 0 1.7148 0.89231 2.7226 2.4198 2.7226 1.5124 0 2.4198-1.0078 2.4198-2.7226-0.015124-1.6997-0.90743-2.7226-2.4198-2.7226z"/>
                        <path d="m14.337 5.8061v2.8429h-1.9964v-8.5287h3.0248c2.4198 0 3.4482 1.2184 3.4482 2.7827 0 1.6997-1.0738 2.888-3.4482 2.888zm0-1.5042h1.0284c1.0284 0 1.467-0.51142 1.467-1.3989 0-0.78217-0.45372-1.3086-1.467-1.3086h-1.0284z"/>
                        <polygon id="Path" points="27.813 8.634 22.293 8.634 22.293 0.10529 27.813 0.12033 27.813 1.6396 24.289 1.6396 24.289 3.6251 26.981 3.6251 26.981 5.0841 24.289 5.0841 24.289 7.1148 27.813 7.1148"/>
                        <path d="m33.545 0.42117 4.0683 5.1142c-0.030248-0.33092-0.045372-0.63175-0.045372-0.91755v-4.5125h1.7544v8.5287h-1.0284c-0.30248 0-0.49909-0.075209-0.6957-0.33092l-4.0381-5.0841c0.03025 0.30084 0.04537 0.58663 0.04537 0.84234v4.5727h-1.7544v-8.5287h1.0435c0.33272 0.015042 0.42347 0.060167 0.65033 0.31588z"/>
                        <path d="m2.3744 18.637h0.3176c0.28735 0 0.49909-0.09025 0.6352-0.27075l1.9359-2.7827c0.21173-0.30084 0.46884-0.39109 0.86206-0.39109h1.7241l-2.5408 3.4446c-0.18149 0.25571-0.3781 0.40613-0.58983 0.51142 0.30248 0.10529 0.54446 0.28579 0.74107 0.60167l2.5862 3.956h-1.7846c-0.45372 0-0.62008-0.13538-0.77132-0.361l-1.9359-2.9632c-0.13611-0.21058-0.33272-0.30084-0.71082-0.30084h-0.48396v3.6251h-1.9963v-8.5287h1.9963v3.4596z"/>
                        <path d="m13.233 15.478 4.0683 5.1142c-0.03025-0.33092-0.04537-0.63176-0.04537-0.91755v-4.5125h1.7544v8.5287h-1.0284c-0.30248 0-0.49909-0.07521-0.6957-0.33092l-4.0381-5.0841c0.03025 0.30084 0.04537 0.58663 0.04537 0.84234v4.5727h-1.7544v-8.5287h1.0435c0.33272 0.01504 0.42347 0.06017 0.65033 0.31588z"/>
                        <path d="m27.268 23.796c-2.6769 0-4.4615-1.8953-4.4615-4.3621 0-2.4669 1.7846-4.3621 4.4615-4.3621 2.6618 0 4.4464 1.8953 4.4464 4.3621 0 2.4669-1.7846 4.3621-4.4464 4.3621zm0-7.0847c-1.5275 0-2.4198 1.0228-2.4198 2.7226 0 1.7148 0.89231 2.7226 2.4198 2.7226 1.5124 0 2.4198-1.0078 2.4198-2.7226-0.01512-1.6847-0.90743-2.7226-2.4198-2.7226z"/>
                        <path d="m34.044 15.177h1.6636c0.34785 0 0.58983 0.16546 0.66545 0.42117l1.1797 4.4524c0.07562 0.28579 0.16636 0.61671 0.21173 0.97772 0.07562-0.37604 0.18149-0.69192 0.27223-0.97772l1.3914-4.4524c0.07562-0.21058 0.3176-0.42117 0.65033-0.42117h0.58983c0.34785 0 0.57471 0.16546 0.66545 0.42117l1.3763 4.4524c0.09074 0.27075 0.18149 0.58663 0.25711 0.93259 0.0605-0.34596 0.13612-0.66184 0.19661-0.93259l1.1797-4.4524c0.0605-0.22563 0.3176-0.42117 0.65033-0.42117h1.5729l-2.6467 8.5287h-1.7997l-1.6183-5.2797c-0.04537-0.16546-0.12099-0.361-0.16636-0.58663-0.04537 0.21058-0.12099 0.42117-0.16636 0.58663l-1.6334 5.2797h-1.7997z"/>
                        <polygon points="50.12 23.706 50.12 15.177 52.117 15.177 52.117 22.126 55.293 22.126 55.293 23.706"/>
                        <polygon points="61.524 20.141 61.524 22.172 65.048 22.172 65.048 23.691 59.528 23.691 59.528 15.162 65.048 15.162 65.048 15.177 65.048 16.696 61.524 16.696 61.524 18.682 64.216 18.682 64.216 20.141"/>
                        <path d="m72.549 23.706h-3.3272v-8.5287h3.3272c2.6618 0 4.4464 1.805 4.4464 4.2568 0 2.4669-1.7846 4.2719-4.4464 4.2719zm0-7.0095h-1.3309v5.4902h1.3309c1.5124 0 2.4198-1.0379 2.4198-2.7376 0-1.6997-0.89231-2.7526-2.4198-2.7526z"/>
                        <path d="m85.752 22.021v-1.2936h-0.84694c-0.2571 0-0.39322-0.15042-0.39322-0.34596v-1.083h3.055v3.595c-0.87718 0.63176-1.8905 0.91755-3.2819 0.91755-2.5106 0-4.3708-1.8652-4.3708-4.3621 0-2.5421 1.7695-4.3621 4.5372-4.3621 1.4368 0 2.4954 0.49638 3.1911 1.1432l-0.57471 0.87242c-0.10587 0.16546-0.27223 0.27075-0.45372 0.27075-0.12099 0-0.24198-0.04513-0.36297-0.12033-0.6352-0.37604-1.0738-0.52646-1.8754-0.52646-1.4821 0-2.4198 1.083-2.4198 2.7226 0 1.805 1.0587 2.8429 2.4954 2.8429 0.51421-0.01504 0.92256-0.12033 1.3007-0.27075z"/>
                        <polygon points="93.738 20.141 93.738 22.172 97.262 22.172 97.262 23.691 91.741 23.691 91.741 15.162 97.262 15.162 97.262 15.177 97.262 16.696 93.738 16.696 93.738 18.682 96.43 18.682 96.43 20.141"/>
                        <polygon points="5.3236 35.453 2.3896 35.453 2.3896 38.778 0.39322 38.778 0.39322 30.234 5.9134 30.234 5.9134 31.753 2.3896 31.753 2.3896 33.919 5.3236 33.919"/>
                        <path d="m17.498 34.491c0 0.61671-0.10587 1.1883-0.3176 1.7148s-0.51421 0.99276-0.90743 1.3838c-0.39322 0.39109-0.86206 0.69192-1.4065 0.91755-0.54446 0.22563-1.1494 0.33092-1.8149 0.33092-0.66545 0-1.2704-0.10529-1.83-0.33092-0.54446-0.22563-1.0133-0.52646-1.4065-0.91755-0.39322-0.39109-0.6957-0.85738-0.90743-1.3838-0.21173-0.52646-0.3176-1.098-0.3176-1.7148s0.10587-1.1883 0.3176-1.7148c0.21173-0.52646 0.51421-0.99276 0.90743-1.3838 0.39322-0.39109 0.86206-0.69192 1.4065-0.91755s1.1645-0.33092 1.83-0.33092c0.66545 0 1.2704 0.10529 1.8149 0.33092s1.0133 0.52646 1.4065 0.91755c0.39322 0.39109 0.6957 0.85738 0.90743 1.3838 0.21173 0.52646 0.3176 1.098 0.3176 1.7148zm-2.0266 0c0-0.42117-0.06049-0.79722-0.16636-1.1432-0.10587-0.33092-0.27223-0.61671-0.46884-0.85738-0.21173-0.24067-0.45372-0.40613-0.75619-0.5415-0.30248-0.12033-0.6352-0.1805-1.0133-0.1805-0.3781 0-0.72594 0.06017-1.0284 0.1805-0.30248 0.12034-0.55958 0.30084-0.75619 0.5415-0.21173 0.24067-0.36297 0.52646-0.46884 0.85738s-0.16636 0.72201-0.16636 1.1432 0.06049 0.81226 0.16636 1.1432c0.10587 0.33092 0.27223 0.61671 0.46884 0.85738 0.21173 0.24067 0.45372 0.40613 0.75619 0.5415 0.30248 0.12033 0.6352 0.1805 1.0284 0.1805 0.3781 0 0.72595-0.06017 1.0133-0.1805 0.30248-0.12033 0.54446-0.30084 0.75619-0.5415 0.21173-0.24067 0.36297-0.52646 0.46884-0.85738s0.16636-0.722 0.16636-1.1432z"/>
                        <path d="m24.123 37.198c0.27223 0 0.49909-0.04513 0.71082-0.13538 0.21173-0.09025 0.39322-0.21058 0.52934-0.37604 0.15124-0.16546 0.2571-0.361 0.33272-0.60167 0.07562-0.24067 0.12099-0.51142 0.12099-0.79722v-5.054h1.9963v5.054c0 0.52646-0.09074 1.0078-0.25711 1.444-0.16636 0.43621-0.40834 0.81226-0.72594 1.1281-0.3176 0.31588-0.71082 0.55655-1.1645 0.73705-0.45372 0.1805-0.96793 0.27075-1.5426 0.27075-0.57471 0-1.0889-0.09025-1.5426-0.27075-0.45372-0.1805-0.84694-0.42117-1.1645-0.73705-0.3176-0.31588-0.55958-0.69192-0.72595-1.1281-0.16636-0.43621-0.2571-0.91755-0.2571-1.444v-5.054h1.9963v5.039c0 0.30084 0.04537 0.57159 0.12099 0.79721 0.07562 0.24067 0.18149 0.43621 0.33272 0.60167 0.15124 0.16546 0.3176 0.28579 0.52934 0.37604 0.19661 0.10529 0.43859 0.15042 0.71082 0.15042z"/>
                        <path d="m33.257 30.249c0.0605 0.01504 0.10587 0.01504 0.16636 0.04512 0.04537 0.01504 0.09074 0.04513 0.13611 0.09025 0.04537 0.04513 0.09074 0.09025 0.15124 0.16546l4.0683 5.1142c-0.01512-0.16546-0.03025-0.31588-0.03025-0.48134-0.01512-0.15042-0.01512-0.30084-0.01512-0.43621v-4.5125h1.7544v8.5287h-1.0284c-0.15124 0-0.28735-0.03008-0.39322-0.07521s-0.21173-0.13538-0.30248-0.25571l-4.0381-5.0841c0.01512 0.15042 0.01512 0.30084 0.03025 0.43621 0.01512 0.13538 0.01512 0.27075 0.01512 0.40613v4.5727h-1.7544v-8.5287h1.0435c0.0605 0 0.13612 0 0.19661 0.01504z"/>
                        <path d="m51.557 34.491c0 0.61671-0.10587 1.1883-0.3176 1.6997-0.21173 0.52646-0.51421 0.97772-0.90743 1.3538-0.39322 0.37604-0.86206 0.67688-1.4065 0.88746-0.54446 0.21058-1.1494 0.31588-1.8149 0.31588h-3.3272v-8.5136h3.3272c0.66545 0 1.2704 0.10529 1.8149 0.31588 0.54446 0.21058 1.0133 0.51142 1.4065 0.88746 0.39322 0.37604 0.6957 0.8273 0.90743 1.3538 0.21173 0.52646 0.3176 1.083 0.3176 1.6997zm-2.0266 0c0-0.42117-0.0605-0.79722-0.16636-1.1432-0.10587-0.34596-0.27223-0.63176-0.46884-0.85738-0.21173-0.24067-0.45372-0.42117-0.75619-0.5415-0.30248-0.12033-0.6352-0.19554-1.0133-0.19554h-1.3309v5.4903h1.3309c0.3781 0 0.72595-0.06017 1.0133-0.19554 0.30248-0.12033 0.54446-0.30084 0.75619-0.5415 0.21173-0.24067 0.36297-0.52646 0.46884-0.85738 0.10587-0.34596 0.16636-0.73705 0.16636-1.1582z"/>
                        <path d="m62.749 38.763h-1.5426c-0.16636 0-0.3176-0.04512-0.42347-0.12033-0.10587-0.07521-0.19661-0.1805-0.22686-0.30084l-0.49909-1.4891h-3.2668l-0.49909 1.4891c-0.04537 0.10529-0.12099 0.21058-0.22686 0.30084-0.12099 0.09025-0.25711 0.13538-0.42347 0.13538h-1.5578l3.3121-8.5287h2.0417zm-5.5051-3.2641h2.3442l-0.78644-2.3315c-0.04537-0.15042-0.10587-0.31588-0.18149-0.52646-0.07562-0.19554-0.13611-0.42117-0.19661-0.6468-0.0605 0.24067-0.12099 0.45125-0.19661 0.66184-0.0605 0.19554-0.13612 0.37604-0.18149 0.52646z"/>
                        <polygon points="67.513 31.798 65.093 31.798 65.093 30.234 71.929 30.234 71.929 31.798 69.509 31.798 69.509 38.763 67.513 38.763"/>
                        <polygon points="75.665 38.763 75.665 30.234 77.661 30.234 77.661 38.763"/>
                        <path d="m90.289 34.491c0 0.61671-0.10587 1.1883-0.3176 1.7148s-0.51421 0.99276-0.90743 1.3838c-0.39322 0.39109-0.86206 0.69192-1.4065 0.91755-0.54446 0.22563-1.1494 0.33092-1.8149 0.33092s-1.2704-0.10529-1.83-0.33092c-0.54446-0.22563-1.0133-0.52646-1.4065-0.91755s-0.6957-0.85738-0.90743-1.3838-0.3176-1.098-0.3176-1.7148 0.10587-1.1883 0.3176-1.7148c0.21173-0.52646 0.51421-0.99276 0.90743-1.3838 0.39322-0.39109 0.86206-0.69192 1.4065-0.91755s1.1645-0.33092 1.83-0.33092 1.2704 0.10529 1.8149 0.33092 1.0133 0.52646 1.4065 0.91755c0.39322 0.39109 0.6957 0.85738 0.90743 1.3838 0.21173 0.52646 0.3176 1.098 0.3176 1.7148zm-2.0266 0c0-0.42117-0.0605-0.79722-0.16636-1.1432-0.10587-0.33092-0.27223-0.61671-0.46884-0.85738-0.21173-0.24067-0.45372-0.40613-0.75619-0.5415-0.30248-0.12033-0.6352-0.1805-1.0133-0.1805-0.3781 0-0.72595 0.06017-1.0284 0.1805-0.30248 0.12034-0.55958 0.30084-0.75619 0.5415-0.21173 0.24067-0.36297 0.52646-0.46884 0.85738s-0.16636 0.72201-0.16636 1.1432 0.0605 0.81226 0.16636 1.1432c0.10587 0.33092 0.27223 0.61671 0.46884 0.85738 0.21173 0.24067 0.45372 0.40613 0.75619 0.5415 0.30248 0.12033 0.6352 0.1805 1.0284 0.1805 0.3781 0 0.72594-0.06017 1.0133-0.1805 0.30248-0.12033 0.54446-0.30084 0.75619-0.5415 0.21173-0.24067 0.36297-0.52646 0.46884-0.85738s0.16636-0.722 0.16636-1.1432z"/>
                        <path d="m95.401 30.249c0.0605 0.01504 0.10587 0.01504 0.16636 0.04512 0.04537 0.01504 0.09074 0.04513 0.13612 0.09025 0.04537 0.04513 0.09074 0.09025 0.15124 0.16546l4.0683 5.1142c-0.01512-0.16546-0.03025-0.31588-0.03025-0.48134-0.01512-0.15042-0.01512-0.30084-0.01512-0.43621v-4.5125h1.7544v8.5287h-1.0284c-0.15124 0-0.28735-0.03008-0.39322-0.07521s-0.21173-0.13538-0.30247-0.25571l-4.0381-5.0841c0.01512 0.15042 0.01512 0.30084 0.03025 0.43621 0.01512 0.13538 0.01512 0.27075 0.01512 0.40613v4.5727h-1.7544v-8.5287h1.0435c0.0605 0 0.13611 0 0.19661 0.01504z"/>
                        <path d="m7.4863 49.548c0 0.63176-0.10587 1.2184-0.30248 1.7448s-0.48396 0.97772-0.86206 1.3387c-0.3781 0.37604-0.81669 0.66184-1.3309 0.87242s-1.0889 0.30084-1.7241 0.30084h-3.2063v-8.5136h3.2063c0.6352 0 1.2099 0.10529 1.7241 0.30084 0.51421 0.21058 0.96793 0.49638 1.3309 0.87242 0.36297 0.37604 0.65033 0.8273 0.86206 1.3538 0.21173 0.51142 0.30248 1.098 0.30248 1.7298zm-1.1797 0c0-0.52646-0.075619-0.99276-0.21173-1.3989-0.13611-0.40613-0.34785-0.76713-0.60495-1.0529s-0.57471-0.49638-0.9528-0.6468c-0.3781-0.15042-0.78644-0.22563-1.2553-0.22563h-2.0417v6.6485h2.0417c0.45372 0 0.87718-0.07521 1.2553-0.22563 0.3781-0.15042 0.6957-0.361 0.9528-0.6468s0.46884-0.63176 0.60495-1.0379c0.13611-0.42117 0.21173-0.88746 0.21173-1.4139z"/>
                        <polygon points="12.023 49.954 12.023 52.857 16.137 52.857 16.137 53.789 10.859 53.789 10.859 45.276 16.137 45.276 16.137 45.291 16.137 46.223 12.023 46.223 12.023 49.051 15.351 49.051 15.351 49.954"/>
                        <path d="m24.032 52.887c0.34785 0 0.66545-0.06017 0.9528-0.1805 0.27223-0.12034 0.51421-0.28579 0.71082-0.49638s0.34785-0.4663 0.43859-0.76713c0.10587-0.30084 0.15124-0.61671 0.15124-0.97772v-5.1744h1.1494v5.1744c0 0.49638-0.07562 0.94763-0.24198 1.3688-0.15124 0.42117-0.3781 0.78217-0.68057 1.098-0.28735 0.30084-0.65033 0.5415-1.0738 0.72201s-0.89231 0.25571-1.4216 0.25571-0.99817-0.09025-1.4216-0.25571c-0.42347-0.1805-0.78644-0.42117-1.0738-0.72201-0.28735-0.30084-0.51421-0.67688-0.68057-1.098-0.15124-0.42117-0.24198-0.87242-0.24198-1.3688v-5.1744h1.1494v5.1744c0 0.361 0.04537 0.67688 0.15124 0.97772 0.10587 0.30084 0.24198 0.55655 0.43859 0.76713s0.42347 0.37604 0.71082 0.49638c0.3176 0.12033 0.6352 0.1805 0.98305 0.1805z"/>
                        <polygon points="34.392 46.253 31.609 46.253 31.609 45.291 38.324 45.291 38.324 46.253 35.556 46.253 35.556 53.804 34.392 53.804"/>
                        <path d="m47.156 46.614c-0.03025 0.06017-0.07562 0.10529-0.12099 0.13538-0.04537 0.03008-0.09074 0.04512-0.15124 0.04512-0.0605 0-0.15124-0.03008-0.24198-0.10529-0.09074-0.06017-0.19661-0.13538-0.34785-0.22563-0.13612-0.07521-0.30248-0.15042-0.49909-0.22563-0.19661-0.06017-0.42347-0.10529-0.6957-0.10529-0.25711 0-0.48396 0.03008-0.68057 0.10529-0.19661 0.07521-0.36297 0.16546-0.49909 0.28579s-0.22686 0.25571-0.30248 0.42117c-0.0605 0.16546-0.10587 0.33092-0.10587 0.52646 0 0.24067 0.0605 0.43621 0.18149 0.58663 0.12099 0.15042 0.27223 0.28579 0.46884 0.40613 0.19661 0.10529 0.40834 0.21058 0.65033 0.28579 0.24198 0.07521 0.49909 0.16546 0.75619 0.25571 0.2571 0.09025 0.51421 0.1805 0.75619 0.30084 0.24198 0.10529 0.46884 0.24067 0.65033 0.40613 0.19661 0.16546 0.34785 0.37604 0.46884 0.61671s0.18149 0.5415 0.18149 0.88746c0 0.37604-0.0605 0.72201-0.19661 1.0529-0.12099 0.33092-0.3176 0.61671-0.55958 0.85738-0.24198 0.24067-0.54446 0.43621-0.90743 0.57159s-0.75619 0.21058-1.2099 0.21058c-0.55958 0-1.0587-0.10529-1.5124-0.30084-0.45372-0.19554-0.84694-0.4663-1.1645-0.81226l0.33272-0.5415c0.03025-0.04512 0.07562-0.07521 0.12099-0.10529 0.04537-0.03008 0.09074-0.04513 0.15124-0.04513 0.09074 0 0.18149 0.04513 0.28735 0.13538 0.10587 0.09025 0.24198 0.1805 0.40834 0.30084 0.16636 0.10529 0.36297 0.21058 0.58983 0.30084 0.22686 0.09025 0.51421 0.13538 0.84694 0.13538 0.27223 0 0.51421-0.04513 0.74107-0.12033 0.21173-0.07521 0.39322-0.1805 0.54446-0.31588 0.15124-0.13538 0.2571-0.30084 0.34785-0.49638 0.07562-0.19554 0.12099-0.40613 0.12099-0.63176 0-0.25571-0.06049-0.4663-0.18149-0.63176-0.12099-0.16546-0.27223-0.30084-0.46884-0.40613-0.19661-0.10529-0.40834-0.21058-0.65032-0.28579-0.24198-0.07521-0.49909-0.15042-0.75619-0.24067-0.25711-0.07521-0.51421-0.1805-0.75619-0.28579-0.24198-0.10529-0.46884-0.24067-0.65033-0.42117-0.19661-0.16546-0.34785-0.37604-0.46884-0.63176-0.12099-0.25571-0.18149-0.57159-0.18149-0.94763 0-0.30084 0.0605-0.58663 0.18149-0.87242 0.12099-0.28579 0.28735-0.52646 0.51421-0.75209 0.22686-0.21058 0.49909-0.39109 0.83181-0.52646 0.33272-0.13538 0.71082-0.19554 1.1343-0.19554 0.48396 0 0.90743 0.07521 1.3158 0.22563 0.39322 0.15042 0.74107 0.37604 1.0284 0.6468z"/>
                        <path d="m58.363 52.045c0.0605 0 0.12099 0.03008 0.16636 0.07521l0.45372 0.49638c-0.34785 0.40613-0.77132 0.72201-1.2704 0.94763-0.49909 0.22563-1.104 0.34596-1.8149 0.34596-0.62008 0-1.1797-0.10529-1.6787-0.31588-0.49909-0.21058-0.93768-0.51142-1.2855-0.88746-0.34785-0.37604-0.6352-0.84234-0.83181-1.3688-0.19661-0.5415-0.28735-1.1281-0.28735-1.7599 0-0.6468 0.10587-1.2334 0.3176-1.7599 0.21173-0.5415 0.49909-0.99276 0.87718-1.3838 0.3781-0.39109 0.83181-0.67688 1.3611-0.88746s1.104-0.31588 1.7544-0.31588c0.6352 0 1.1797 0.09025 1.6334 0.28579 0.45372 0.19554 0.86206 0.45125 1.2099 0.79721l-0.3781 0.52646c-0.03025 0.04513-0.06049 0.07521-0.09074 0.10529-0.03025 0.03008-0.09074 0.04512-0.15124 0.04512-0.04537 0-0.10587-0.01504-0.16636-0.06017-0.0605-0.04513-0.12099-0.09025-0.21173-0.13538-0.07562-0.06017-0.16636-0.12033-0.28735-0.1805-0.10587-0.06017-0.24198-0.12034-0.3781-0.1805-0.13611-0.06017-0.3176-0.10529-0.51421-0.13538-0.19661-0.04512-0.42347-0.06017-0.68057-0.06017-0.45372 0-0.87718 0.07521-1.2553 0.24067-0.3781 0.15042-0.71082 0.37604-0.98305 0.66184-0.27223 0.28579-0.48396 0.6468-0.6352 1.0529-0.15124 0.42117-0.22686 0.88746-0.22686 1.3989 0 0.52646 0.07562 1.0078 0.22686 1.4139 0.15124 0.42117 0.36297 0.76713 0.62008 1.0529 0.27223 0.28579 0.57471 0.51142 0.93768 0.66184 0.36297 0.15042 0.75619 0.22563 1.1645 0.22563 0.25711 0 0.48396-0.01504 0.68057-0.04512 0.19661-0.03008 0.39322-0.07521 0.55958-0.13538 0.16636-0.06017 0.33272-0.15042 0.48396-0.24067 0.15124-0.09025 0.30248-0.21058 0.45372-0.34596 0.09074-0.10529 0.15124-0.13538 0.22686-0.13538z"/>
                        <polygon points="69.192 49.096 69.192 45.291 70.356 45.291 70.356 53.804 69.192 53.804 69.192 49.924 64.579 49.924 64.579 53.804 63.414 53.804 63.414 45.291 64.579 45.291 64.579 49.096"/>
                        <polygon points="75.816 53.804 75.816 45.291 76.98 45.291 76.98 52.842 80.686 52.842 80.686 53.804"/>
                        <path d="m92.24 53.804h-0.89231c-0.10587 0-0.18149-0.03008-0.25711-0.07521-0.0605-0.04512-0.10587-0.12033-0.13612-0.19554l-0.80156-2.0607h-3.8415l-0.80156 2.0607c-0.03025 0.07521-0.07562 0.13538-0.13612 0.19554-0.0605 0.06017-0.15124 0.09025-0.2571 0.09025h-0.89231l3.418-8.5136h1.1797zm-5.611-3.1588h3.1911l-1.346-3.4596c-0.09074-0.21058-0.16636-0.48134-0.2571-0.79721-0.04537 0.16546-0.09074 0.31588-0.13612 0.45125-0.04537 0.13538-0.07562 0.25571-0.12099 0.361z"/>
                        <path d="m97.367 45.321c0.04537 0.03008 0.10587 0.07521 0.16636 0.15042l4.9606 6.4228c-0.0151-0.10529-0.0151-0.19554-0.0302-0.30084v-0.28579-6.0318h1.0133v8.5136h-0.58984c-0.0907 0-0.16636-0.01504-0.22685-0.04512-0.0605-0.03008-0.12099-0.09025-0.18149-0.16546l-4.9606-6.4078c0.01512 0.10529 0.01512 0.19554 0.01512 0.28579v0.25571 6.0769h-1.0133v-8.5136h0.60496c0.12099 0.01504 0.19661 0.01504 0.24198 0.04513z"/>
                        <path d="m115.89 49.548c0 0.63176-0.10586 1.2184-0.30247 1.7448s-0.48397 0.97772-0.86206 1.3387c-0.3781 0.37604-0.81669 0.66184-1.3309 0.87242-0.51422 0.21058-1.0889 0.30084-1.7241 0.30084h-3.2063v-8.5136h3.2063c0.6352 0 1.2099 0.10529 1.7241 0.30084 0.51421 0.21058 0.96792 0.49638 1.3309 0.87242 0.37809 0.37604 0.65032 0.8273 0.86206 1.3538 0.21173 0.51142 0.30247 1.098 0.30247 1.7298zm-1.1797 0c0-0.52646-0.0756-0.99276-0.21173-1.3989-0.13612-0.40613-0.34785-0.76713-0.60496-1.0529-0.2571-0.28579-0.5747-0.49638-0.9528-0.6468s-0.78644-0.22563-1.2553-0.22563h-2.0417v6.6485h2.0417c0.45372 0 0.87718-0.07521 1.2553-0.22563 0.3781-0.15042 0.6957-0.361 0.9528-0.6468 0.25711-0.28579 0.46884-0.63176 0.60496-1.0379 0.13611-0.42117 0.21173-0.88746 0.21173-1.4139z"/>
                    </g>
                    <polygon points="31.038 40.178 30.147 42.323 36.638 45.057 29.755 43.532 29.257 45.798 36.125 47.323 29.091 47.051 29 49.378 36.034 49.65 29.06 50.631 29.377 52.943 36.366 51.961 29.664 54.166 30.404 56.387 37.091 54.166 30.902 57.535 32.004 59.589 38.208 56.221 32.713 60.631 34.162 62.444 39.657 58.018 35.053 63.366 36.804 64.876 41.423 59.544 37.83 65.616 39.823 66.81 43.415 60.737 40.97 67.353 43.143 68.154 45.604 61.538 44.366 68.486 46.66 68.894 47.883 61.946 47.913 69 50.238 68.985 50.208 61.931 51.506 68.879 53.785 68.441 52.502 61.508 55.008 68.109 57.181 67.278 54.675 60.692 58.313 66.734 60.306 65.526 56.668 59.483 61.317 64.785 63.068 63.245 58.404 57.943 63.928 62.323 65.377 60.495 59.853 56.115 66.072 59.438 67.158 57.399 60.955 54.076 67.657 56.221 68.366 54.015 61.649 51.855 68.653 52.776 68.955 50.465 61.966 49.544 69 49.211 68.894 46.885 61.845 47.218 68.713 45.631 68.2 43.366 61.317 44.952 67.792 42.172 66.872 40.027 60.411 42.822 66.283 38.924 64.985 36.976 59.113 40.888 64.2 35.994 62.585 34.317 57.513 39.211 61.634 33.486 59.747 32.127 55.626 37.837 58.66 31.477 56.562 30.48 53.528 36.84 55.385 30.027 53.136 29.423 51.279 36.221 51.898 29.196 49.589 29 48.94 36.266 48.245 29 45.936 29.227 46.6 36.251 44.698 29.453 42.449 30.088 44.366 36.885 41.272 30.541 39.189 31.568 42.283 37.897 38.102 32.218 36.23 33.592 40.411 39.272 35.279 34.423 33.694 36.115 38.811 40.964 32.909 37.112 31.642 39.06 37.543 42.912"/>
                    <polygon points="97.925 53.825 97.503 56.976 80.778 54.714 81.2 51.578"/>
                    <polygon id="Rectangle" transform="rotate(-54.233 75.531 12.111)" points="88.635 10.52 88.633 13.683 62.428 13.702 62.43 10.539"/>
                    <polygon transform="rotate(-64.519 65.627 14.097)" points="71.943 12.512 71.941 15.674 59.311 15.682 59.313 12.52"/>
                    <polygon transform="rotate(-74.805 59.855 9.102)" points="68.855 7.5177 68.854 10.679 50.855 10.686 50.856 7.5247"/>
                    <polygon points="50.234 16.645 51.318 4.0557 54.465 4.3271 53.396 16.946"/>
                    <polygon points="43.144 2.8646 46.29 2.5631 47.615 16.645 44.469 16.946"/>
                    <polygon points="36.219 8.9557 39.275 8.0963 41.88 17.429 38.839 18.273"/>
                    <polygon transform="rotate(-25.958 33.539 16.981)" points="35.122 13.732 35.118 20.228 31.956 20.23 31.96 13.734"/>
                    <polygon points="27.232 21.771 29.791 19.902 31.282 21.952 28.738 23.822"/>
                    <polygon points="17.041 20.701 19.224 18.394 26.766 25.555 24.583 27.862"/>
                    <polygon points="9.6043 24.892 11.335 22.238 22.957 29.928 21.226 32.566"/>
                    <polygon points="11.471 34.722 12.705 31.812 19.991 34.888 18.757 37.813"/>
                    <polygon points="16.92 46.015 16.785 49.181 6.0366 48.759 6.172 45.593"/>
                    <polygon transform="rotate(-7.9437 13.971 53.824)" points="17.163 52.241 17.162 55.407 10.78 55.408 10.78 52.242"/>
                    <polygon transform="rotate(-18.239 16.719 59.587)" points="18.534 58.003 18.532 61.169 14.904 61.171 14.905 58.005"/>
                    <polygon transform="rotate(-28.515 14.963 67.453)" points="21.529 65.866 21.527 69.031 8.3957 69.04 8.3977 65.875"/>
                    <polygon transform="rotate(-38.806 18.412 73.579)" points="25.493 71.992 25.491 75.156 11.331 75.167 11.333 72.002"/>
                    <polygon transform="rotate(-49.104 23.425 78.518)" points="30.327 76.931 30.324 80.094 16.523 80.105 16.525 76.941"/>
                    <polygon transform="rotate(-59.388 30.992 79.418)" points="34.18 77.834 34.178 80.997 27.803 81.001 27.805 77.839"/>
                    <polygon points="32.049 90.266 36.355 78.626 39.32 79.727 35.015 91.366"/>
                    <polygon transform="rotate(-79.951 42.419 86.306)" points="48.118 84.724 48.117 87.885 36.719 87.888 36.72 84.727"/>
                    <polygon points="47.615 89.12 47.585 81.204 50.746 81.189 50.776 89.105"/>
                    <polygon points="53.366 80.948 56.467 80.36 59.267 95.422 56.151 96.01"/>
                    <polygon transform="rotate(-20.811 62.131 83.421)" points="63.715 78.793 63.71 88.049 60.548 88.05 60.553 78.794"/>
                    <polygon points="76.88 98 79.589 96.357 67.019 75.746 64.31 77.39"/>
                    <polygon points="69.202 74.269 71.46 72.038 73.237 73.802 70.994 76.033"/>
                    <polygon points="73.327 70.198 75.284 67.71 83.292 74.043 81.32 76.53"/>
                    <polygon points="76.729 65.509 78.219 62.72 86.348 67.047 84.858 69.851"/>
                    <polygon points="79.243 60.293 80.206 57.277 84.12 58.529 83.157 61.544"/>
                    <polygon points="81.14 45.774 88.968 45.397 89.118 48.563 81.305 48.94"/>
                    <polygon transform="rotate(-13.097 85.243 40.515)" points="90.19 38.93 90.189 42.096 80.297 42.099 80.298 38.933"/>
                    <polygon points="77.994 34.677 84.196 31.993 85.445 34.903 79.258 37.587"/>
                    <polygon points="74.998 29.732 91.316 18.831 93.077 21.47 76.744 32.37"/>
                    <polygon points="71.159 25.405 73.613 23.022 75.796 25.314 73.342 27.681"/>
                    <polygon points="17.267 43.406 17.959 40.316 0.7828 36.456 0.075269 39.547"/>
                </g>
                <g transform="translate(40,44)" fill="#fff">
                    <path d="m9.5644 3.3c-0.27458-0.6662-0.65593-1.2549-1.1441-1.7352-0.48814-0.49577-1.0831-0.86761-1.7695-1.1465-0.68644-0.27887-1.4644-0.41831-2.3034-0.41831h-4.2102v11h4.2102c0.83898 0 1.6169-0.13944 2.3034-0.41831 0.68644-0.27887 1.2814-0.6507 1.7695-1.1465 0.48814-0.49577 0.86949-1.069 1.1441-1.7507 0.27458-0.68169 0.41186-1.4099 0.41186-2.2-0.015254-0.79014-0.15254-1.5183-0.41186-2.1845zm-2.3797 3.6718c-0.13729 0.4338-0.33559 0.80563-0.59492 1.1155-0.25932 0.30986-0.57966 0.54225-0.96102 0.69718-0.38136 0.17042-0.80847 0.24789-1.2814 0.24789h-1.678v-7.0803h1.678c0.48814 0 0.91525 0.077465 1.2814 0.24789 0.38136 0.17042 0.70169 0.40282 0.96102 0.69718 0.25932 0.30986 0.45763 0.68169 0.59492 1.1155 0.13729 0.4338 0.21356 0.92958 0.21356 1.4718 0 0.55775-0.076271 1.0535-0.21356 1.4873z"/>
                    <polygon points="16.841 4.5239 13.439 4.5239 13.439 1.9521 17.893 1.9521 17.893 0 10.907 0 10.907 11 17.893 11 17.893 9.0324 13.439 9.0324 13.439 6.4141 16.841 6.4141"/>
                </g>
            </g>
        </g>
        <g id="PF-Logo" transform="matrix(.78833 0 0 .78833 242.61 24.065)">
            <g id="PrototypeFund-P-Logo" transform="translate(109.27 45)" fill-rule="nonzero">
                <g transform="translate(.72565 115)" fill="#1d1d1b">
                    <path d="m0.065637 0.16319h3.8398c3.0193 0 5.5792 1.5014 5.5792 4.4715 0 3.166-2.7239 4.6021-5.7761 4.6021h-1.5753v5.5486h-2.0347zm2.0347 7.3764 1.6081-0.032639c1.3456 0 3.6429-0.48958 3.6429-2.8722 0-2.2847-2.2317-2.8069-3.4131-2.8069l-1.8378-0.032639z"/>
                    <path d="m11.027 7.2785c0-0.91389-0.03282-1.7951-0.13127-2.6438h1.8378l0.09845 2.6438h0.13128c0.361-1.3056 1.4768-2.8069 2.9865-2.8069 0.55792 0 0.98456 0.13056 1.3127 0.29375v1.7299c-0.29536-0.13056-0.722-0.26111-1.1486-0.26111-1.9363 0-3.0193 1.8931-3.1506 4.0472v4.5042h-1.9363z"/>
                    <path d="m22.973 4.341c3.5116 0 5.0212 3.0681 5.0212 5.3528 0 2.709-1.7722 5.4181-5.0212 5.4181s-5.1197-2.5785-5.1197-5.4181c0-2.35 1.5753-5.3528 5.1197-5.3528zm-0.03282 9.3347c1.5753 0 3.0521-1.2403 3.0521-4.0146 0-2.5785-1.4112-3.884-3.0521-3.884-1.3127 0-3.0849 0.84861-3.0849 3.9167 0 2.0889 0.95174 3.9819 3.0849 3.9819z"/>
                    <path d="m28.88 4.6021h1.6737l0.361-3.0354h1.5097v3.0354h2.888v1.4688h-2.888v5.7444c0 0.91389 0.45946 1.4688 1.4112 1.4688 0.55792 0 1.2143-0.19583 1.4768-0.29375v1.5014c-0.361 0.22847-1.0174 0.52222-1.7066 0.52222-1.9691 0-3.0849-1.175-3.0849-3.1333v-5.7444h-1.6409z"/>
                    <path d="m41.45 4.341c3.5116 0 5.0212 3.0681 5.0212 5.3528 0 2.709-1.7722 5.4181-5.0212 5.4181s-5.1197-2.5785-5.1197-5.4181c0-2.35 1.6081-5.3528 5.1197-5.3528zm-0.03282 9.3347c1.5753 0 3.0521-1.2403 3.0521-4.0146 0-2.5785-1.4112-3.884-3.0521-3.884-1.3127 0-3.0849 0.84861-3.0849 3.9167 0 2.0889 0.95174 3.9819 3.0849 3.9819z"/>
                    <path d="m47.39 4.6021h1.6737l0.361-3.0354h1.5097v3.0354h2.888v1.4688h-2.888v5.7444c0 0.91389 0.45946 1.4688 1.4112 1.4688 0.55792 0 1.2143-0.19583 1.4768-0.29375v1.5014c-0.361 0.22847-1.0174 0.52222-1.7066 0.52222-1.9691 0-3.0849-1.175-3.0849-3.1333v-5.7444h-1.6409z"/>
                    <path d="m60.058 16.809c-0.62355 1.5667-1.6409 2.0562-2.888 2.0562-0.42664 0-0.98456-0.06528-1.3456-0.19583v-1.6319c0.29537 0.09792 0.82046 0.19583 1.1158 0.19583 0.65637 0 1.0502-0.22847 1.3456-0.81597 0.19691-0.4243 0.5251-1.3056 0.62355-1.6319 0.098456-0.45694-0.19691-0.71806-0.59073-0.68542l-3.6757-9.4653h2.1332l2.8552 8.0618h0.13127l2.4942-8.0618h2.0019c-3.4788 10.151-3.7413 10.901-4.2008 12.174z"/>
                    <path d="m67.442 18.669h-1.9035v-12.566c0-0.42431-0.03282-1.1097-0.03282-1.5014h1.805c0.03282 0.39167 0.03282 1.1424 0.03282 1.534h0.13127c0.68919-1.0444 1.6737-1.6972 3.0193-1.6972 2.8224 0 4.3649 2.4806 4.3649 5.3201 0 2.9375-1.5753 5.3201-4.2664 5.3201-1.8378 0-2.7239-1.2076-3.0193-1.6319h-0.13127s0.03282 0.71806 0.03282 1.3708zm2.5927-12.762c-1.4112 0-2.4942 1.4688-2.5927 2.5458v2.4479c0.03282 1.1097 1.0502 2.709 2.6583 2.709 1.8707 0 2.7239-1.7625 2.7239-3.8514 0-2.3174-0.91892-3.8514-2.7896-3.8514z"/>
                    <path d="m77.55 9.9549c0.03282 2.1215 1.0502 3.6556 2.9865 3.6556 1.2471 0 2.1988-0.81597 2.4286-1.9583h1.8707c-0.22973 1.6646-1.7394 3.4271-4.4305 3.4271-2.8552 0-4.7915-2.1542-4.7915-5.4833 0-2.8396 1.805-5.2549 4.6602-5.2549 3.7413 0 4.7915 3.2312 4.529 5.6139zm5.3822-1.4035c0.03282-0.97917-0.5251-2.8069-2.5927-2.8069-1.3784 0-2.5598 0.97917-2.7239 2.8396z"/>
                    <g transform="translate(0 19.257)">
                        <polygon points="7.9421 6.5604 7.9421 8.2576 2.166 8.2576 2.166 14.622 0.098456 14.622 0.065637 0 8.2703 0 8.2703 1.7299 2.166 1.7299 2.166 6.5604"/>
                        <path d="m18.608 4.4715v8.4208c0 0.52222 0.03282 1.2076 0.13127 1.7299h-1.9691c-0.03282-0.4243-0.03282-1.175-0.03282-1.7625h-0.13127c-0.22973 0.42431-1.2471 1.8931-3.3147 1.8931-1.3784 0-3.4788-0.7507-3.4788-3.8188v-6.4951h1.9691v6.4951c0 1.3382 0.62355 2.2521 1.9363 2.2521 1.3784 0 2.5927-1.2076 2.9208-2.9701v-5.7771h1.9691z"/>
                        <path d="m20.512 6.2014c0-0.52222-0.03282-1.1424-0.09846-1.7299h1.9691v1.7299h0.13127c0.26255-0.45694 1.3784-1.9583 3.3147-1.9583 1.2143 0 3.3803 0.65278 3.3803 3.7535v6.6257h-1.9691v-6.6583c0-1.4035-0.62355-2.2194-1.805-2.2194-1.4112 0-2.5927 1.3056-2.9865 2.9701v5.9076h-1.9363z"/>
                        <path d="m37.774 0h1.9035v13.121c0 0.42431 0 1.1097 0.03282 1.5014h-1.7394c-0.03282-0.4243-0.03282-1.0444-0.03282-1.5014h-0.13127c-0.68919 1.0444-1.7066 1.6646-3.0193 1.6646-2.8552 0-4.4305-2.4806-4.4305-5.3201 0-2.9375 1.5753-5.3201 4.2664-5.3201 1.8378 0 2.7239 1.2076 3.0193 1.6319h0.13127s-0.03282-0.68542-0.03282-1.3708zm-2.5598 13.349c1.4112 0 2.4942-1.4688 2.5598-2.5132v-2.4806c-0.032818-1.1097-1.0502-2.709-2.6583-2.709-1.8707 0-2.7239 1.7625-2.7239 3.8514 0.03282 2.3174 0.95174 3.8514 2.8224 3.8514z"/>
                    </g>
                </g>
                <path id="XMLID_19_" d="m57.475 0.033068 12.484 1.5873 14.766 28.769-14.766 24.173s-16.852 4.4642-23.306 6.0514h-14.701v38.954l11.898 4.2658-0.29336 4.1666-21.155-0.29761-21.22 0.29761-0.45634-4.1666 11.995-4.2658v-91.201l-11.995-4.1996 0.45634-4.1666zm-25.523 52.28 12.289 2.3809 18.971-13.426 5.8673-10.879-5.8673-10.945-18.971-12.698-12.289 1.6534z" fill="#009ace"/>
            </g>
        </g>
    </g>
</svg>
