<?xml version="1.0" encoding="UTF-8" standalone="no"?>
<svg
   width="512"
   height="512"
   viewBox="0 0 512 512"
   fill="none"
   version="1.1"
   id="svg192"
   xmlns="http://www.w3.org/2000/svg"
   xmlns:svg="http://www.w3.org/2000/svg">
  <defs
     id="defs196" />
  <rect
     width="412"
     height="412"
     rx="89.824997"
     fill="#ffffff"
     id="rect184"
     x="50"
     y="50"
     style="stroke-width:0.804688" />
  <path
     d="m 220.82228,341.34435 h -83.88706 l -18.84015,52.25721 H 90.866216 L 167.32746,193.37278 h 23.10338 l 76.59821,200.22878 h -27.09142 z m -75.911,-21.72817 h 68.07254 l -34.10507,-93.65114 z m 235.29626,59.27087 c -9.90088,11.64302 -24.43192,17.46493 -43.59314,17.46493 -15.8612,0 -27.96289,-4.5843 -36.30589,-13.75211 -8.25046,-9.25953 -12.42196,-22.91991 -12.5137,-40.98112 v -96.81356 h 25.441 v 96.12636 c 0,22.55297 9.16781,33.82986 27.50422,33.82986 19.43562,0 32.36292,-7.24299 38.78031,-21.72817 V 244.80519 h 25.441 v 148.79637 h -24.20339 z"
     fill="#000000"
     id="path186"
     style="stroke-width:0.804688" />
  <circle
     cx="326.8125"
     cy="142.53906"
     fill="#ed6a5e"
     id="circle188"
     style="stroke-width:0.804688"
     r="49.085938" />
  <rect
     x="316.35156"
     y="148.17188"
     width="21.726562"
     height="271.17969"
     fill="#ed6a5e"
     id="rect190"
     style="stroke-width:0.804688" />
</svg>
